<?xml version="1.0" encoding="UTF-8"?>
<svg version="1.1" xmlns="http://www.w3.org/2000/svg" width="45" height="45">
<path d="M0 0 C1.32 0 2.64 0 4 0 C7.84087543 9.56535827 11.5620617 18.96143053 14 29 C17.63 29.33 21.26 29.66 25 30 C25.33 32.31 25.66 34.62 26 37 C27.65 37.33 29.3 37.66 31 38 C31 36.68 31 35.36 31 34 C30.360625 33.773125 29.72125 33.54625 29.0625 33.3125 C27 32 27 32 26.25 29.5 C26 27 26 27 26 25 C25.6596875 23.3603125 25.6596875 23.3603125 25.3125 21.6875 C25 18 25 18 26 15.125 C28 13 28 13 31.4375 12.0625 C36.39705882 11.9754902 36.39705882 11.9754902 39 14 C40.74722306 16.41283184 41.05927315 17.52581483 40.6875 20.5 C40.25725858 22.06451424 39.82076096 23.62733665 39.375 25.1875 C38.78653641 27.08903493 38.78653641 27.08903493 40 29 C38.38999603 32.13950774 36.61500768 34.63404067 34 37 C36.64 37 39.28 37 42 37 C41.67 37.99 41.34 38.98 41 40 C26.69292646 41.36257843 12.35638391 41.09768292 -2 41 C-2 40.01 -2 39.02 -2 38 C-1.071875 37.5875 -0.14375 37.175 0.8125 36.75 C3.92687186 35.04014879 5.04219635 33.8388153 7 31 C7.66 31 8.32 31 9 31 C8.7326001 30.30438965 8.4652002 29.6087793 8.18969727 28.89208984 C6.97480968 25.72192243 5.7685862 22.54852576 4.5625 19.375 C3.93118164 17.73337891 3.93118164 17.73337891 3.28710938 16.05859375 C2.88427734 14.99511719 2.48144531 13.93164062 2.06640625 12.8359375 C1.69459229 11.86188965 1.32277832 10.8878418 0.93969727 9.88427734 C-0.02789843 6.91436942 -0.64539359 4.10245509 -1 1 C-0.67 0.67 -0.34 0.34 0 0 Z M31 18 C31 19.32 31 20.64 31 22 C32.32 21.67 33.64 21.34 35 21 C34.67 20.01 34.34 19.02 34 18 C33.01 18 32.02 18 31 18 Z " fill="#6EC0D8" transform="translate(3,2)"/>
</svg>
