<?xml version="1.0" encoding="UTF-8"?>
<svg version="1.1" xmlns="http://www.w3.org/2000/svg" width="45" height="45">
<path d="M0 0 C3.96 0 7.92 0 12 0 C12 14.19 12 28.38 12 43 C-2.19 43 -16.38 43 -31 43 C-31 42.01 -31 41.02 -31 40 C-29.68 40 -28.36 40 -27 40 C-27 39.01 -27 38.02 -27 37 C-27.66 37 -28.32 37 -29 37 C-28.67 36.01 -28.34 35.02 -28 34 C-25.69 34 -23.38 34 -21 34 C-21.66 32.02 -22.32 30.04 -23 28 C-22 27 -22 27 -18.9375 26.9375 C-17.4834375 26.9684375 -17.4834375 26.9684375 -16 27 C-16 25.35 -16 23.7 -16 22 C-16.66 22 -17.32 22 -18 22 C-18 21.01 -18 20.02 -18 19 C-15.36 19 -12.72 19 -10 19 C-10 18.01 -10 17.02 -10 16 C-10.66 16 -11.32 16 -12 16 C-12 15.01 -12 14.02 -12 13 C-10.865625 12.87625 -9.73125 12.7525 -8.5625 12.625 C-7.386875 12.41875 -6.21125 12.2125 -5 12 C-4.67 11.34 -4.34 10.68 -4 10 C-4.66 10 -5.32 10 -6 10 C-6 9.01 -6 8.02 -6 7 C-3.69 7 -1.38 7 1 7 C0.34 5.02 -0.32 3.04 -1 1 C-0.67 0.67 -0.34 0.34 0 0 Z M4 3 C4 5.31 4 7.62 4 10 C2.35 10 0.7 10 -1 10 C-1 11.98 -1 13.96 -1 16 C-2.98 16 -4.96 16 -7 16 C-7 17.98 -7 19.96 -7 22 C-8.98 22 -10.96 22 -13 22 C-13 24.64 -13 27.28 -13 30 C-14.65 30 -16.3 30 -18 30 C-18 32.31 -18 34.62 -18 37 C-19.98 37 -21.96 37 -24 37 C-24 37.99 -24 38.98 -24 40 C-13.11 40 -2.22 40 9 40 C9 27.79 9 15.58 9 3 C7.35 3 5.7 3 4 3 Z " fill="#6EC0D8" transform="translate(32,1)"/>
<path d="M0 0 C0.99 0 1.98 0 3 0 C3 8.25 3 16.5 3 25 C2.01 25 1.02 25 0 25 C0 16.75 0 8.5 0 0 Z " fill="#6EC0D8" transform="translate(37,15)"/>
<path d="M0 0 C0.99 0.33 1.98 0.66 3 1 C3 1.66 3 2.32 3 3 C3.99 3.33 4.98 3.66 6 4 C5.67 4.99 5.34 5.98 5 7 C4.34 7 3.68 7 3 7 C2.67 7.99 2.34 8.98 2 10 C1.01 9.67 0.02 9.34 -1 9 C-1 8.34 -1 7.68 -1 7 C-1.99 6.67 -2.98 6.34 -4 6 C-3.67 5.01 -3.34 4.02 -3 3 C-2.34 3 -1.68 3 -1 3 C-0.67 2.01 -0.34 1.02 0 0 Z " fill="#6EC0D8" transform="translate(11,5)"/>
<path d="M0 0 C1.75 1.25 1.75 1.25 3 3 C2.9375 5 2.9375 5 2 7 C-0.0625 8.75 -0.0625 8.75 -2 10 C-4 8.1875 -4 8.1875 -6 6 C-6 3 -6 3 -4.6875 1.3125 C-3 0 -3 0 0 0 Z " fill="#6EC0D8" transform="translate(29,27)"/>
</svg>
